<?xml version="1.0" encoding="UTF-8" standalone="no"?>
<!-- Created with Inkscape (http://www.inkscape.org/) -->

<svg
   width="1000"
   height="1000"
   viewBox="0 0 264.58333 264.58333"
   version="1.1"
   id="svg1"
   inkscape:version="1.3 (0e150ed6c4, 2023-07-21)"
   sodipodi:docname="checkbox.svg"
   inkscape:export-filename="checkbox.png"
   inkscape:export-xdpi="240"
   inkscape:export-ydpi="240"
   xmlns:inkscape="http://www.inkscape.org/namespaces/inkscape"
   xmlns:sodipodi="http://sodipodi.sourceforge.net/DTD/sodipodi-0.dtd"
   xmlns="http://www.w3.org/2000/svg"
   xmlns:svg="http://www.w3.org/2000/svg">
  <sodipodi:namedview
     id="namedview1"
     pagecolor="#373737"
     bordercolor="#000000"
     borderopacity="0.25"
     inkscape:showpageshadow="2"
     inkscape:pageopacity="0.0"
     inkscape:pagecheckerboard="0"
     inkscape:deskcolor="#d1d1d1"
     inkscape:document-units="mm"
     inkscape:zoom="0.66903058"
     inkscape:cx="397.59019"
     inkscape:cy="561.25984"
     inkscape:window-width="1920"
     inkscape:window-height="986"
     inkscape:window-x="-11"
     inkscape:window-y="-11"
     inkscape:window-maximized="1"
     inkscape:current-layer="layer1" />
  <defs
     id="defs1">
    <inkscape:path-effect
       effect="fillet_chamfer"
       id="path-effect1"
       is_visible="true"
       lpeversion="1"
       nodesatellites_param="F,0,0,1,0,20,0,1 @ F,0,0,1,0,20,0,1 @ F,0,0,1,0,20,0,1 @ F,0,0,1,0,20,0,1"
       radius="0"
       unit="px"
       method="auto"
       mode="F"
       chamfer_steps="1"
       flexible="false"
       use_knot_distance="true"
       apply_no_radius="true"
       apply_with_radius="true"
       only_selected="false"
       hide_knots="false" />
  </defs>
  <g
     inkscape:label="Layer 1"
     inkscape:groupmode="layer"
     id="layer1">
    <path
       d="m 39.843563,19.84375 a 20,20 0 0 0 -6.179985,0.978752 20,20 0 0 0 -5.57537,2.840653 20,20 0 0 0 -4.425053,4.425053 20,20 0 0 0 -2.840653,5.57537 20,20 0 0 0 -0.978752,6.179985 V 224.73977 a 20,20 0 0 0 0.978752,6.17999 20,20 0 0 0 2.840653,5.57537 20,20 0 0 0 4.425053,4.42505 20,20 0 0 0 5.57537,2.84065 20,20 0 0 0 6.179985,0.97875 H 224.73977 a 20,20 0 0 0 6.17999,-0.97875 20,20 0 0 0 5.57537,-2.84065 20,20 0 0 0 4.42505,-4.42505 20,20 0 0 0 2.84065,-5.57537 20,20 0 0 0 0.97875,-6.17999 V 39.843563 a 20,20 0 0 0 -0.12557,-2.23914 20,20 0 0 0 -0.37569,-2.211235 20,20 0 0 0 -0.62115,-2.154907 20,20 0 0 0 -0.85834,-2.072225 20,20 0 0 0 -1.08469,-1.963187 20,20 0 0 0 -1.29811,-1.828829 20,20 0 0 0 -1.49449,-1.67225 20,20 0 0 0 -1.67225,-1.494482 20,20 0 0 0 -1.82883,-1.298112 20,20 0 0 0 -1.96318,-1.084688 20,20 0 0 0 -2.07223,-0.858346 20,20 0 0 0 -2.15491,-0.621151 20,20 0 0 0 -2.21123,-0.375687 20,20 0 0 0 -2.23914,-0.125574 z M 212.45783,43.859338 225.687,57.088505 119.85367,215.83851 H 93.395333 L 40.478666,162.92184 53.707833,149.69267 106.6245,202.60934 Z"
       style="fill:#ffffff;stroke:#c1c1c1;stroke-width:3.96875"
       id="path3" />
  </g>
</svg>
