<?xml version="1.0" encoding="UTF-8" standalone="no"?>
<!-- Created with Inkscape (http://www.inkscape.org/) -->

<svg
   width="200"
   height="200"
   viewBox="0 0 52.916667 52.916666"
   version="1.1"
   id="svg1"
   inkscape:version="1.3 (0e150ed6c4, 2023-07-21)"
   sodipodi:docname="Controller.svg"
   inkscape:export-filename="Controller.png"
   inkscape:export-xdpi="96"
   inkscape:export-ydpi="96"
   xmlns:inkscape="http://www.inkscape.org/namespaces/inkscape"
   xmlns:sodipodi="http://sodipodi.sourceforge.net/DTD/sodipodi-0.dtd"
   xmlns="http://www.w3.org/2000/svg"
   xmlns:svg="http://www.w3.org/2000/svg">
  <sodipodi:namedview
     id="namedview1"
     pagecolor="#505050"
     bordercolor="#ffffff"
     borderopacity="1"
     inkscape:showpageshadow="0"
     inkscape:pageopacity="0"
     inkscape:pagecheckerboard="1"
     inkscape:deskcolor="#505050"
     inkscape:document-units="px"
     showgrid="true"
     inkscape:zoom="2.8284271"
     inkscape:cx="196.92924"
     inkscape:cy="114.02097"
     inkscape:window-width="1920"
     inkscape:window-height="1057"
     inkscape:window-x="-8"
     inkscape:window-y="-8"
     inkscape:window-maximized="1"
     inkscape:current-layer="layer1"
     inkscape:export-bgcolor="#ffffff00">
    <inkscape:grid
       id="grid13"
       units="px"
       originx="-225"
       originy="-112.5"
       spacingx="1.3229167"
       spacingy="1.3229167"
       empcolor="#0099e5"
       empopacity="0.30196078"
       color="#0099e5"
       opacity="0.14901961"
       empspacing="5"
       dotted="false"
       gridanglex="30"
       gridanglez="30"
       visible="true"
       snapvisiblegridlinesonly="false" />
  </sodipodi:namedview>
  <defs
     id="defs1" />
  <g
     inkscape:label="Layer 1"
     inkscape:groupmode="layer"
     id="layer1"
     transform="translate(-59.53125,-29.765625)">
    <path
       id="path18"
       style="fill:#ffffff;fill-opacity:1;stroke-width:0.292541"
       d="m 88.635412,57.991172 a 5.2916665,5.2916665 0 0 0 -0.3054,-0.163298 5.2916665,5.2916665 0 0 0 -0.31523,-0.143144 5.2916665,5.2916665 0 0 0 -0.32401,-0.121956 5.2916665,5.2916665 0 0 0 -0.33176,-0.100252 5.2916665,5.2916665 0 0 0 -0.33693,-0.07855 5.2916665,5.2916665 0 0 0 -0.34159,-0.05633 5.2916665,5.2916665 0 0 0 -0.34468,-0.03411 5.2916665,5.2916665 0 0 0 -0.34623,-0.01137 5.2916665,5.2916665 0 0 0 -0.51883,0.02532 5.2916665,5.2916665 0 0 0 -0.51366,0.07648 5.2916665,5.2916665 0 0 0 -0.50385,0.12609 5.2916665,5.2916665 0 0 0 -0.48886,0.174666 5.2916665,5.2916665 0 0 0 -0.62063,0.33228 v 9.113656 a 5.2916665,5.2916665 0 0 0 0.62063,0.332279 5.2916665,5.2916665 0 0 0 0.48886,0.174666 5.2916665,5.2916665 0 0 0 0.50385,0.126091 5.2916665,5.2916665 0 0 0 0.51366,0.07648 5.2916665,5.2916665 0 0 0 0.51883,0.02532 5.2916665,5.2916665 0 0 0 0.51883,-0.02532 5.2916665,5.2916665 0 0 0 0.51367,-0.07648 5.2916665,5.2916665 0 0 0 0.50384,-0.126091 5.2916665,5.2916665 0 0 0 0.48886,-0.174666 5.2916665,5.2916665 0 0 0 0.62063,-0.332279 z M 83.343752,43.309381 V 58.01701 a 5.2916665,5.2916665 0 0 1 0.62063,-0.33228 5.2916665,5.2916665 0 0 1 0.48886,-0.174666 5.2916665,5.2916665 0 0 1 0.50385,-0.12609 5.2916665,5.2916665 0 0 1 0.51366,-0.07648 5.2916665,5.2916665 0 0 1 0.51883,-0.02532 5.2916665,5.2916665 0 0 1 0.34623,0.01137 5.2916665,5.2916665 0 0 1 0.34468,0.03411 5.2916665,5.2916665 0 0 1 0.34159,0.05633 5.2916665,5.2916665 0 0 1 0.33693,0.07855 5.2916665,5.2916665 0 0 1 0.33176,0.100252 5.2916665,5.2916665 0 0 1 0.32401,0.121956 5.2916665,5.2916665 0 0 1 0.31523,0.143144 5.2916665,5.2916665 0 0 1 0.3054,0.163298 V 43.309381 a 5.2916665,5.2916665 0 0 1 -0.34985,0.219624 5.2916665,5.2916665 0 0 1 -0.54828,0.22686 5.2916665,5.2916665 0 0 1 -0.56999,0.164331 5.2916665,5.2916665 0 0 1 -0.58498,0.09974 5.2916665,5.2916665 0 0 1 -0.59273,0.03307 5.2916665,5.2916665 0 0 1 -0.59273,-0.03307 5.2916665,5.2916665 0 0 1 -0.58498,-0.09974 5.2916665,5.2916665 0 0 1 -0.56999,-0.164331 5.2916665,5.2916665 0 0 1 -0.54828,-0.22686 5.2916665,5.2916665 0 0 1 -0.34985,-0.219624 z m 7.937498,-5.870839 a 5.2916665,5.2916665 0 0 1 -5.291667,5.291666 5.2916665,5.2916665 0 0 1 -5.291666,-5.291666 5.2916665,5.2916665 0 0 1 5.291666,-5.291667 5.2916665,5.2916665 0 0 1 5.291667,5.291667 z M 79.639584,80.433333 H 105.17188 V 74.744792 H 79.639584 Z M 77.7875,74.215625 66.807292,63.235417 v 5.291666 L 77.7875,79.507292 Z M 68.130209,61.9125 79.110417,72.892708 H 104.24583 L 93.265625,61.9125 Z m 17.793229,3.77548 c 0.198152,1.7e-5 0.396135,0.0109 0.592729,0.03307 0.196593,0.02217 0.391799,0.05562 0.584977,0.09974 0.193114,0.04406 0.383318,0.09903 0.569991,0.164331 0.186673,0.0653 0.369817,0.140939 0.548287,0.226859 0.178537,0.08596 0.351825,0.181563 0.519348,0.286804 0.167523,0.105242 0.329282,0.220117 0.484208,0.343649 0.09442,0.08776 0.185607,0.178946 0.273368,0.273368 -0.08776,0.09442 -0.178946,0.185606 -0.273368,0.273368 -0.154928,0.123534 -0.316685,0.238408 -0.484208,0.343649 -0.167523,0.105241 -0.340813,0.200849 -0.519348,0.286804 -0.17847,0.08592 -0.361614,0.161558 -0.548287,0.226859 -0.186673,0.0653 -0.376878,0.120268 -0.569991,0.164331 -0.193178,0.04412 -0.388384,0.07757 -0.584977,0.09974 -0.196594,0.02217 -0.394578,0.03306 -0.592729,0.03307 -0.198151,-1.5e-5 -0.396135,-0.0109 -0.592729,-0.03307 -0.196594,-0.02217 -0.391799,-0.05562 -0.584977,-0.09974 -0.193113,-0.04407 -0.383318,-0.09903 -0.569991,-0.164331 -0.186673,-0.0653 -0.369817,-0.140937 -0.548287,-0.226859 -0.178535,-0.08596 -0.351825,-0.181563 -0.519348,-0.286804 -0.167523,-0.105241 -0.32928,-0.220115 -0.484208,-0.343649 -0.09442,-0.08776 -0.185606,-0.178946 -0.273369,-0.273368 0.08776,-0.09442 0.178946,-0.185605 0.273369,-0.273368 0.154926,-0.123532 0.316685,-0.238407 0.484208,-0.343649 0.167523,-0.105241 0.340811,-0.200848 0.519348,-0.286804 0.17847,-0.08592 0.361614,-0.161558 0.548287,-0.226859 0.186673,-0.0653 0.376877,-0.120266 0.569991,-0.164331 0.193178,-0.04412 0.388384,-0.07757 0.584977,-0.09974 0.196594,-0.02217 0.394577,-0.03306 0.592729,-0.03307 z" />
  </g>
</svg>
