<?xml version="1.0" encoding="UTF-8" standalone="no"?>
<!-- Created with Inkscape (http://www.inkscape.org/) -->

<svg
   width="400"
   height="400"
   viewBox="0 0 105.83333 105.83333"
   version="1.1"
   id="svg1"
   inkscape:version="1.3 (0e150ed6c4, 2023-07-21)"
   sodipodi:docname="Integer.svg"
   inkscape:export-filename="Integer.png"
   inkscape:export-xdpi="600"
   inkscape:export-ydpi="600"
   xmlns:inkscape="http://www.inkscape.org/namespaces/inkscape"
   xmlns:sodipodi="http://sodipodi.sourceforge.net/DTD/sodipodi-0.dtd"
   xmlns="http://www.w3.org/2000/svg"
   xmlns:svg="http://www.w3.org/2000/svg">
  <sodipodi:namedview
     id="namedview1"
     pagecolor="#808080"
     bordercolor="#000000"
     borderopacity="0.25"
     inkscape:showpageshadow="2"
     inkscape:pageopacity="0.0"
     inkscape:pagecheckerboard="0"
     inkscape:deskcolor="#d1d1d1"
     inkscape:document-units="mm"
     inkscape:zoom="1.7542131"
     inkscape:cx="217.1914"
     inkscape:cy="194.10412"
     inkscape:window-width="1920"
     inkscape:window-height="986"
     inkscape:window-x="-11"
     inkscape:window-y="-11"
     inkscape:window-maximized="1"
     inkscape:current-layer="layer1" />
  <defs
     id="defs1" />
  <g
     inkscape:label="Layer 1"
     inkscape:groupmode="layer"
     id="layer1">
    <path
       style="fill:#ffffff;stroke:none;stroke-width:3.96875"
       d="M 39.6875,21.166667 52.916667,0 66.145833,21.166667 Z"
       id="path1"
       sodipodi:nodetypes="cccc" />
    <path
       style="fill:#ffffff;stroke:none;stroke-width:3.96875"
       d="M 39.6875,84.666667 H 66.145833 L 52.916667,105.83333 Z"
       id="path2"
       sodipodi:nodetypes="cccc" />
    <path
       d="m 52.916667,37.041667 c -0.198744,0 -0.395638,0.0092 -0.590145,0.02739 -0.194507,0.0182 -0.386565,0.04551 -0.576709,0.08113 -0.190144,0.03562 -0.378137,0.0795 -0.56379,0.131775 -0.185653,0.05227 -0.368803,0.112717 -0.549837,0.180868 -0.181035,0.06815 -0.360113,0.144121 -0.536402,0.227376 -0.176289,0.08325 -0.349999,0.173715 -0.521415,0.271301 -0.171416,0.09759 -0.34053,0.202533 -0.506946,0.313676 -0.166415,0.111144 -0.330155,0.228506 -0.491443,0.352433 -0.161287,0.123928 -0.319907,0.254219 -0.475939,0.390157 -0.156033,0.135939 -0.309271,0.277605 -0.459921,0.424781 -0.15065,0.147176 -0.298761,0.299696 -0.4439,0.457336 -0.14514,0.15764 -0.287345,0.320495 -0.426848,0.487826 -0.139502,0.167331 -0.276573,0.339482 -0.41031,0.51573 -0.133738,0.176249 -0.264379,0.35666 -0.392225,0.541053 -0.127845,0.184392 -0.252828,0.372543 -0.374654,0.564306 -0.121825,0.191764 -0.240372,0.387134 -0.35605,0.585494 -0.115679,0.198361 -0.22856,0.399913 -0.337964,0.604098 -0.109404,0.204185 -0.215325,0.410881 -0.318327,0.620117 -0.103002,0.209236 -0.202733,0.421074 -0.299207,0.634587 -0.09647,0.213512 -0.189753,0.428938 -0.279569,0.645955 -0.08982,0.217017 -0.176383,0.43551 -0.259416,0.655257 -0.08303,0.219748 -0.162624,0.440787 -0.238745,0.662492 -0.07612,0.221705 -0.148475,0.443737 -0.217558,0.666626 -0.06908,0.222889 -0.134971,0.446427 -0.196887,0.669727 -0.06192,0.223299 -0.120044,0.44679 -0.174666,0.669726 -0.05462,0.222937 -0.105761,0.445342 -0.152962,0.667143 -0.0472,0.2218 -0.09057,0.442601 -0.130225,0.662492 -0.03965,0.219891 -0.07551,0.439082 -0.107487,0.65629 -0.03198,0.217209 -0.06006,0.432721 -0.08423,0.646473 -0.02417,0.213752 -0.04422,0.425581 -0.06046,0.635103 -0.01624,0.209522 -0.02851,0.416631 -0.03669,0.621151 -0.0082,0.204519 -0.0124,0.406387 -0.0124,0.605131 0,0.198743 0.0042,0.400611 0.0124,0.605131 0.0082,0.204519 0.02045,0.411628 0.03669,0.62115 0.01624,0.209523 0.03629,0.421352 0.06046,0.635104 0.02417,0.213752 0.05226,0.429264 0.08423,0.646472 0.03198,0.217208 0.06783,0.4364 0.107487,0.656291 0.03965,0.219891 0.08302,0.440691 0.130225,0.662491 0.0472,0.221801 0.09834,0.444207 0.152962,0.667143 0.05462,0.222937 0.11275,0.446427 0.174666,0.669727 0.06192,0.223299 0.127805,0.446838 0.196887,0.669726 0.06908,0.222889 0.141437,0.444921 0.217558,0.666626 0.07612,0.221705 0.155713,0.442745 0.238745,0.662492 0.08303,0.219748 0.169599,0.43824 0.259416,0.655257 0.08982,0.217017 0.183096,0.432443 0.279569,0.645956 0.09647,0.213513 0.196205,0.425351 0.299207,0.634586 0.103002,0.209236 0.208923,0.415933 0.318327,0.620118 0.109404,0.204184 0.222285,0.405736 0.337964,0.604097 0.115678,0.198361 0.234225,0.393731 0.35605,0.585494 0.121826,0.191763 0.246809,0.379914 0.374654,0.564307 0.127846,0.184392 0.258487,0.364803 0.392225,0.541052 0.133737,0.176248 0.270808,0.3484 0.41031,0.515731 0.139503,0.167331 0.281708,0.330185 0.426848,0.487825 0.145139,0.15764 0.29325,0.310161 0.4439,0.457337 0.15065,0.147176 0.303888,0.288841 0.459921,0.42478 0.156032,0.135938 0.314652,0.266229 0.475939,0.390157 0.161288,0.123928 0.325028,0.24129 0.491443,0.352433 0.166416,0.111144 0.33553,0.21609 0.506946,0.313676 0.171416,0.09759 0.345126,0.188046 0.521415,0.271301 0.176289,0.08325 0.355367,0.159226 0.536402,0.227377 0.181034,0.06815 0.364184,0.128594 0.549837,0.180867 0.185653,0.05227 0.373646,0.09615 0.56379,0.131775 0.190144,0.03562 0.382202,0.06293 0.576709,0.08113 0.194507,0.0182 0.391401,0.02739 0.590145,0.02739 0.198743,0 0.395637,-0.0092 0.590145,-0.02739 0.194507,-0.0182 0.386565,-0.04551 0.576709,-0.08113 0.190143,-0.03562 0.378136,-0.0795 0.563789,-0.131775 0.185653,-0.05227 0.368803,-0.112717 0.549838,-0.180867 0.181034,-0.06815 0.360112,-0.144122 0.536401,-0.227377 0.176289,-0.08326 0.349999,-0.173715 0.521415,-0.271301 0.171416,-0.09759 0.34053,-0.202532 0.506946,-0.313676 0.166416,-0.111143 0.330155,-0.228505 0.491443,-0.352433 0.161288,-0.123928 0.319907,-0.254219 0.47594,-0.390157 0.156032,-0.135939 0.30927,-0.277604 0.45992,-0.42478 0.15065,-0.147176 0.298761,-0.299697 0.443901,-0.457337 0.145139,-0.15764 0.287345,-0.320494 0.426847,-0.487825 0.139502,-0.167331 0.276573,-0.339483 0.410311,-0.515731 0.133737,-0.176249 0.264379,-0.35666 0.392224,-0.541052 0.127845,-0.184393 0.252828,-0.372544 0.374654,-0.564307 0.121826,-0.191763 0.240372,-0.387133 0.356051,-0.585494 0.115678,-0.198361 0.228559,-0.399913 0.337964,-0.604097 0.109404,-0.204185 0.215324,-0.410882 0.318326,-0.620118 0.103003,-0.209235 0.202734,-0.421073 0.299207,-0.634586 0.09647,-0.213513 0.189753,-0.428939 0.279569,-0.645956 0.08982,-0.217017 0.176384,-0.435509 0.259416,-0.655257 0.08303,-0.219747 0.162624,-0.440787 0.238745,-0.662492 0.07612,-0.221705 0.148476,-0.443737 0.217558,-0.666626 0.06908,-0.222888 0.134971,-0.446427 0.196887,-0.669726 0.06192,-0.2233 0.120044,-0.44679 0.174667,-0.669727 0.05462,-0.222936 0.10576,-0.445342 0.152962,-0.667143 0.0472,-0.2218 0.09057,-0.4426 0.130224,-0.662491 0.03965,-0.219891 0.07551,-0.439083 0.107487,-0.656291 0.03198,-0.217208 0.06006,-0.43272 0.08423,-0.646472 0.02417,-0.213752 0.04422,-0.425581 0.06046,-0.635104 0.01624,-0.209522 0.02851,-0.416631 0.03669,-0.62115 0.0082,-0.20452 0.0124,-0.406388 0.0124,-0.605131 0,-0.198744 -0.0042,-0.400612 -0.0124,-0.605131 -0.0082,-0.20452 -0.02045,-0.411629 -0.03669,-0.621151 -0.01624,-0.209522 -0.03629,-0.421351 -0.06046,-0.635103 -0.02417,-0.213752 -0.05225,-0.429264 -0.08423,-0.646473 -0.03198,-0.217208 -0.06783,-0.436399 -0.107487,-0.65629 -0.03965,-0.219891 -0.08302,-0.440692 -0.130224,-0.662492 -0.0472,-0.221801 -0.09834,-0.444206 -0.152962,-0.667143 -0.05462,-0.222936 -0.112751,-0.446427 -0.174667,-0.669726 -0.06192,-0.2233 -0.127805,-0.446838 -0.196887,-0.669727 -0.06908,-0.222889 -0.141437,-0.444921 -0.217558,-0.666626 -0.07612,-0.221705 -0.155712,-0.442744 -0.238745,-0.662492 -0.08303,-0.219747 -0.169599,-0.43824 -0.259416,-0.655257 -0.08982,-0.217017 -0.183096,-0.432443 -0.279569,-0.645955 -0.09647,-0.213513 -0.196204,-0.425351 -0.299207,-0.634587 -0.103002,-0.209236 -0.208922,-0.415932 -0.318326,-0.620117 -0.109405,-0.204185 -0.222286,-0.405737 -0.337964,-0.604098 -0.115679,-0.19836 -0.234225,-0.39373 -0.356051,-0.585494 -0.121826,-0.191763 -0.246809,-0.379914 -0.374654,-0.564306 -0.127845,-0.184393 -0.258487,-0.364804 -0.392224,-0.541053 -0.133738,-0.176248 -0.270809,-0.348399 -0.410311,-0.51573 -0.139502,-0.167331 -0.281708,-0.330186 -0.426847,-0.487826 -0.14514,-0.15764 -0.293251,-0.31016 -0.443901,-0.457336 -0.15065,-0.147176 -0.303888,-0.288842 -0.45992,-0.424781 -0.156033,-0.135938 -0.314652,-0.266229 -0.47594,-0.390157 -0.161288,-0.123927 -0.325027,-0.241289 -0.491443,-0.352433 -0.166416,-0.111143 -0.33553,-0.21609 -0.506946,-0.313676 -0.171416,-0.09759 -0.345126,-0.188046 -0.521415,-0.271301 -0.176289,-0.08326 -0.355367,-0.159226 -0.536401,-0.227376 -0.181035,-0.06815 -0.364185,-0.128595 -0.549838,-0.180868 -0.185653,-0.05227 -0.373646,-0.09615 -0.563789,-0.131775 -0.190144,-0.03562 -0.382202,-0.06293 -0.576709,-0.08113 -0.194508,-0.0182 -0.391402,-0.02739 -0.590145,-0.02739 z m 0,6.614583 c 0.111101,0 0.220594,0.0056 0.328145,0.01654 0.107551,0.0109 0.213287,0.02725 0.317293,0.04858 0.104007,0.02133 0.205975,0.04779 0.306442,0.07906 0.100466,0.03127 0.199174,0.06727 0.296106,0.108004 0.09693,0.04074 0.192368,0.08619 0.28577,0.135909 0.0934,0.04972 0.185041,0.10352 0.274919,0.161747 0.08988,0.05823 0.177709,0.120815 0.264066,0.187069 0.08636,0.06625 0.170889,0.136522 0.253732,0.210323 0.08284,0.0738 0.164062,0.151158 0.243396,0.232027 0.07933,0.08087 0.157231,0.165241 0.23306,0.252698 0.07583,0.08746 0.14988,0.177735 0.222209,0.271301 0.07233,0.09357 0.142522,0.190193 0.211357,0.289388 0.137669,0.198391 0.268502,0.40777 0.392224,0.625802 0.123721,0.218032 0.240552,0.444674 0.350366,0.678511 0.109814,0.233838 0.212562,0.474563 0.308508,0.72037 0.09595,0.245807 0.185048,0.496917 0.267167,0.750858 0.08212,0.253942 0.157494,0.510705 0.225826,0.768946 0.06833,0.25824 0.129383,0.517993 0.183969,0.776696 0.05458,0.258704 0.102781,0.516715 0.14366,0.772046 0.04088,0.255332 0.07459,0.507903 0.101803,0.756027 0.02721,0.248123 0.04791,0.491557 0.0615,0.728637 0.01359,0.237081 0.02015,0.467679 0.02015,0.689881 0,0.222201 -0.0066,0.4528 -0.02015,0.68988 -0.01359,0.237081 -0.03428,0.480514 -0.0615,0.728638 -0.02721,0.248123 -0.06092,0.500694 -0.101803,0.756026 -0.04088,0.255331 -0.08908,0.513342 -0.14366,0.772046 -0.05459,0.258703 -0.115636,0.518456 -0.183969,0.776697 -0.06833,0.25824 -0.143706,0.515003 -0.225826,0.768945 -0.08212,0.253941 -0.17122,0.505051 -0.267167,0.750858 -0.09595,0.245808 -0.198694,0.486533 -0.308508,0.72037 -0.109814,0.233837 -0.226645,0.46048 -0.350366,0.678512 -0.123722,0.218031 -0.254555,0.42741 -0.392224,0.625801 -0.06883,0.0992 -0.139028,0.195822 -0.211357,0.289388 -0.07233,0.09357 -0.14638,0.183844 -0.222209,0.271301 -0.07583,0.08746 -0.153727,0.171829 -0.23306,0.252698 -0.07933,0.08087 -0.160553,0.158226 -0.243396,0.232027 -0.08284,0.0738 -0.167374,0.144069 -0.253732,0.210323 -0.08636,0.06625 -0.174189,0.128841 -0.264066,0.187069 -0.08988,0.05823 -0.181517,0.112026 -0.274919,0.161747 -0.0934,0.04972 -0.188839,0.09517 -0.28577,0.135909 -0.09693,0.04074 -0.19564,0.07673 -0.296106,0.108004 -0.100467,0.03127 -0.202435,0.05774 -0.306442,0.07906 -0.104006,0.02133 -0.209742,0.03767 -0.317293,0.04858 -0.107551,0.0109 -0.217044,0.01654 -0.328145,0.01654 -0.111101,0 -0.220595,-0.0056 -0.328146,-0.01654 -0.107551,-0.0109 -0.213287,-0.02725 -0.317293,-0.04858 -0.104006,-0.02133 -0.205975,-0.04779 -0.306441,-0.07906 -0.100467,-0.03127 -0.199174,-0.06727 -0.296106,-0.108004 -0.09693,-0.04074 -0.192369,-0.08619 -0.285771,-0.135909 -0.0934,-0.04972 -0.185041,-0.103519 -0.274918,-0.161747 -0.08988,-0.05823 -0.177709,-0.120814 -0.264067,-0.187069 -0.08636,-0.06625 -0.170888,-0.136521 -0.253731,-0.210323 -0.08284,-0.0738 -0.164063,-0.151158 -0.243396,-0.232027 -0.07933,-0.08087 -0.157232,-0.16524 -0.233061,-0.252698 -0.07583,-0.08746 -0.149879,-0.177735 -0.222209,-0.271301 -0.07233,-0.09357 -0.142521,-0.190192 -0.211356,-0.289388 -0.13767,-0.198391 -0.268503,-0.40777 -0.392224,-0.625801 -0.123722,-0.218032 -0.240553,-0.444675 -0.350367,-0.678512 -0.109814,-0.233837 -0.212561,-0.474562 -0.308508,-0.72037 -0.09595,-0.245807 -0.185048,-0.496917 -0.267167,-0.750858 -0.08212,-0.253942 -0.157494,-0.510705 -0.225826,-0.768945 -0.06833,-0.258241 -0.129383,-0.517994 -0.183968,-0.776697 -0.05459,-0.258704 -0.102782,-0.516715 -0.143661,-0.772046 -0.04088,-0.255332 -0.07459,-0.507903 -0.101802,-0.756026 -0.02721,-0.248124 -0.04791,-0.491557 -0.0615,-0.728638 -0.01359,-0.23708 -0.02015,-0.467679 -0.02015,-0.68988 0,-0.222202 0.0066,-0.4528 0.02015,-0.689881 0.01359,-0.23708 0.03428,-0.480514 0.0615,-0.728637 0.02721,-0.248124 0.06092,-0.500695 0.101802,-0.756027 0.04088,-0.255331 0.08908,-0.513342 0.143661,-0.772046 0.05459,-0.258703 0.115636,-0.518456 0.183968,-0.776696 0.06833,-0.258241 0.143707,-0.515004 0.225826,-0.768946 0.08212,-0.253941 0.171221,-0.505051 0.267167,-0.750858 0.09595,-0.245807 0.198694,-0.486532 0.308508,-0.72037 0.109814,-0.233837 0.226645,-0.460479 0.350367,-0.678511 0.123721,-0.218032 0.254554,-0.427411 0.392224,-0.625802 0.06883,-0.0992 0.139027,-0.195822 0.211356,-0.289388 0.07233,-0.09357 0.14638,-0.183844 0.222209,-0.271301 0.07583,-0.08746 0.153727,-0.171829 0.233061,-0.252698 0.07933,-0.08087 0.160553,-0.158226 0.243396,-0.232027 0.08284,-0.0738 0.167373,-0.144069 0.253731,-0.210323 0.08636,-0.06625 0.174189,-0.128841 0.264067,-0.187069 0.08988,-0.05823 0.181516,-0.112025 0.274918,-0.161747 0.0934,-0.04972 0.188839,-0.09517 0.285771,-0.135909 0.09693,-0.04074 0.195639,-0.07673 0.296106,-0.108004 0.100466,-0.03127 0.202435,-0.05774 0.306441,-0.07906 0.104006,-0.02133 0.209742,-0.03767 0.317293,-0.04858 0.107551,-0.0109 0.217045,-0.01654 0.328146,-0.01654 z"
       style="fill:#ffffff;stroke:#ffffff;stroke-width:1.32291667;stroke-opacity:1;stroke-dasharray:none"
       id="path4" />
  </g>
</svg>
